<?xml version="1.0" encoding="UTF-8" standalone="no"?>
<svg width="40px" height="50px" viewBox="0 0 40 50" version="1.1" xmlns="http://www.w3.org/2000/svg" xmlns:xlink="http://www.w3.org/1999/xlink" xmlns:sketch="http://www.bohemiancoding.com/sketch/ns">
    <!-- Generator: Sketch 3.3.3 (12072) - http://www.bohemiancoding.com/sketch -->
    <title>Artboard 1</title>
    <desc>Created with Sketch.</desc>
    <defs>
        <path id="path-1" d="M0.00697607634,0.0633660267 L38.6059552,0.0633660267 L38.6059552,48.5999985 L0.00697607634,48.5999985"></path>
    </defs>
    <g id="Page-1" stroke="none" stroke-width="1" fill="none" fill-rule="evenodd" sketch:type="MSPage">
        <g id="Artboard-1" sketch:type="MSArtboardGroup">
            <g id="gravitus_mark_bw" sketch:type="MSLayerGroup">
                <mask id="mask-2" sketch:name="Clip 2" fill="white">
                    <use xlink:href="#path-1"></use>
                </mask>
                <g id="Clip-2"></g>
                <path d="M15.0936713,16.4574942 L15.0936713,26.1721456 C15.0936713,27.8003618 15.5442096,29.0000144 16.4467976,29.7688943 C17.3478741,30.5392856 18.41533,30.9243651 19.6476539,30.9243651 C20.8790477,30.9243651 21.9460385,30.5392856 22.8487428,29.7688943 C23.7498194,29.0000144 24.2011715,27.8003618 24.2011715,26.1721456 L24.2011715,22.3765787 L18.8554042,22.3765787 L18.8554042,16.4574942 L15.0936713,16.4574942" id="Fill-1" fill="#FFFFFF" sketch:type="MSShapeGroup" mask="url(#mask-2)"></path>
                <path d="M38.591073,25.8248533 L38.591073,16.4574942 L30.933434,16.4574942 L30.933434,26.1721456 C30.933434,28.1088206 30.6036981,29.7916828 29.9434125,31.2213134 C29.2832431,32.651409 28.414024,33.8396674 27.336569,34.7849257 C26.2577188,35.7316955 25.0481834,36.4465108 23.7065677,36.9303017 C22.3639055,37.4136275 21.0107792,37.6560462 19.6476539,37.6560462 C18.2831334,37.6560462 16.9301234,37.4136275 15.5883914,36.9303017 C14.2457292,36.4465108 13.0361938,35.7316955 11.9587389,34.7849257 C10.8798887,33.8396674 10.0115997,32.651409 9.35143033,31.2213134 C8.69184231,29.7916828 8.36140883,28.1088206 8.36140883,26.1721456 L8.36140883,16.4574942 L0.00499952137,16.4574942 L0.00499952137,25.8248533 C-0.0411588504,27.0750824 0.243930136,29.3437024 0.591106202,30.5403321 C2.32024299,39.4149476 10.7164159,45.7756177 19.2980362,48.5999985 C27.8795403,45.7756177 36.2758295,39.4149476 38.0043849,30.5403321 C38.3520261,29.3437024 38.6297902,27.0750824 38.591073,25.8248533" id="Fill-3" fill="#FFFFFF" sketch:type="MSShapeGroup" mask="url(#mask-2)"></path>
                <path d="M0.00697607634,8.20235429 L38.6059552,8.20235429 L38.6059552,14.8783431 L0.00697607634,14.8783431 L0.00697607634,8.20235429 Z" id="Fill-4" fill="#FFFFFF" sketch:type="MSShapeGroup" mask="url(#mask-2)"></path>
                <path d="M0.00697607634,0.0633660267 L38.6059552,0.0633660267 L38.6059552,6.73947108 L0.00697607634,6.73947108 L0.00697607634,0.0633660267 Z" id="Fill-5" fill="#FFFFFF" sketch:type="MSShapeGroup" mask="url(#mask-2)"></path>
            </g>
        </g>
    </g>
</svg>